<svg class="icon" style="width: 1em;height: 1em;vertical-align: middle;fill: currentColor;overflow: hidden;" viewBox="0 0 1024 1024" version="1.1" xmlns="http://www.w3.org/2000/svg" p-id="76924"><path d="M923.136 969.557333H193.024v-909.653333h521.386667l208.725333 207.701333z" fill="#7CCDFF" p-id="76925"></path><path d="M912.896 253.952l2.56 671.914667c0 15.530667-12.458667 27.989333-27.989333 27.989333H237.909333c-15.530667 0-27.989333-12.458667-27.989333-27.989333V96.938667c0-15.530667 12.458667-27.989333 27.989333-27.989334l493.397334-1.024-38.912-39.936H239.274667c-36.352 0-65.706667 29.354667-65.706667 65.706667v835.584c0 36.352 29.354667 65.706667 65.706667 65.706667h646.826666c36.352 0 65.706667-29.354667 65.706667-65.706667V293.888l-38.912-39.936z" fill="#4191FB" p-id="76926"></path><path d="M692.394667 222.72c0 39.424 31.914667 71.338667 71.338666 71.338667h188.245334L692.394667 27.989333v194.730667z" fill="#C7E2FF" p-id="76927"></path><path d="M557.568 482.304H158.72c-50.346667 0-91.136-40.789333-91.136-91.136v-60.245333c0-50.346667 40.789333-91.136 91.136-91.136h398.848c50.346667 0 91.136 40.789333 91.136 91.136v60.245333c0 50.346667-40.789333 91.136-91.136 91.136z" fill="#4191FB" p-id="76928"></path><path d="M239.104 379.562667l42.154667 12.8c-2.901333 11.776-7.338667 21.674667-13.312 29.696-6.144 7.850667-13.653333 13.994667-22.698667 17.92-9.045333 4.096-20.48 5.973333-34.474667 5.973333-16.896 0-30.72-2.389333-41.472-7.338667-10.752-4.949333-19.968-13.653333-27.818666-25.941333-7.850667-12.458667-11.605333-28.16-11.605334-47.616 0-25.770667 6.826667-45.568 20.48-59.392s33.109333-20.821333 58.197334-20.821333c19.626667 0 34.986667 3.925333 46.250666 11.946666 11.264 7.850667 19.626667 20.138667 25.088 36.522667l-42.496 9.386667c-1.536-4.778667-3.072-8.192-4.608-10.410667-2.730667-3.754667-5.973333-6.485333-9.898666-8.533333s-8.192-2.901333-13.141334-2.901334c-10.922667 0-19.285333 4.437333-25.088 13.141334-4.437333 6.485333-6.656 16.725333-6.656 30.72 0 17.237333 2.56 29.013333 7.850667 35.498666s12.629333 9.557333 22.016 9.557334c9.216 0 16.213333-2.56 20.821333-7.68 4.778667-5.12 8.192-12.629333 10.410667-22.528zM296.106667 391.850667l45.738666-2.901334c1.024 7.509333 3.072 13.141333 5.973334 17.066667 4.949333 6.314667 12.117333 9.386667 21.162666 9.386667 6.826667 0 12.117333-1.536 15.872-4.778667 3.754667-3.242667 5.632-6.997333 5.632-11.264 0-4.096-1.706667-7.68-5.290666-10.752-3.584-3.242667-11.776-6.144-24.576-9.045333-21.162667-4.778667-36.181333-11.093333-45.226667-18.944s-13.653333-17.92-13.653333-30.037334c0-8.021333 2.389333-15.530667 6.997333-22.698666 4.608-7.168 11.605333-12.629333 20.992-16.725334 9.386667-4.096 22.016-6.144 38.229333-6.144 19.968 0 35.157333 3.754667 45.568 11.093334 10.410667 7.338667 16.725333 19.114667 18.602667 35.328l-45.397333 2.730666c-1.194667-6.997333-3.754667-12.117333-7.68-15.36s-9.216-4.778667-16.042667-4.778666c-5.632 0-9.728 1.194667-12.629333 3.584-2.901333 2.389333-4.266667 5.290667-4.266667 8.704 0 2.56 1.194667 4.778667 3.584 6.656 2.218667 2.048 7.68 3.925333 16.213333 5.802666 20.992 4.608 36.181333 9.045333 45.226667 13.824 9.045333 4.608 15.701333 10.410667 19.797333 17.237334 4.096 6.826667 6.144 14.506667 6.144 23.04 0 10.069333-2.730667 19.114667-8.362666 27.648-5.461333 8.362667-13.312 14.848-23.210667 19.114666-9.898667 4.437333-22.357333 6.485333-37.546667 6.485334-26.453333 0-44.885333-5.12-54.954666-15.36-10.069333-10.24-15.530667-23.210667-16.896-38.912zM453.290667 391.850667l45.738666-2.901334c1.024 7.509333 3.072 13.141333 5.973334 17.066667 4.949333 6.314667 12.117333 9.386667 21.162666 9.386667 6.826667 0 12.117333-1.536 15.872-4.778667 3.754667-3.242667 5.632-6.997333 5.632-11.264 0-4.096-1.706667-7.68-5.290666-10.752-3.584-3.242667-11.776-6.144-24.576-9.045333-21.162667-4.778667-36.181333-11.093333-45.226667-18.944s-13.653333-17.92-13.653333-30.037334c0-8.021333 2.389333-15.530667 6.997333-22.698666s11.605333-12.629333 20.992-16.725334c9.386667-4.096 22.016-6.144 38.229333-6.144 19.968 0 35.157333 3.754667 45.568 11.093334s16.725333 19.114667 18.602667 35.328l-45.397333 2.730666c-1.194667-6.997333-3.754667-12.117333-7.68-15.36s-9.216-4.778667-16.042667-4.778666c-5.632 0-9.728 1.194667-12.629333 3.584-2.901333 2.389333-4.266667 5.290667-4.266667 8.704 0 2.56 1.194667 4.778667 3.584 6.656 2.218667 2.048 7.68 3.925333 16.213333 5.802666 20.992 4.608 36.181333 9.045333 45.226667 13.824 9.045333 4.608 15.701333 10.410667 19.797333 17.237334s6.144 14.506667 6.144 23.04c0 10.069333-2.730667 19.114667-8.362666 27.648-5.461333 8.362667-13.312 14.848-23.210667 19.114666-9.898667 4.437333-22.357333 6.485333-37.546667 6.485334-26.453333 0-44.885333-5.12-54.954666-15.36-10.069333-10.24-15.530667-23.210667-16.896-38.912z" fill="#FFFFFF" p-id="76929"></path><path d="M333.141333 710.314667c10.24-0.170667 18.602667-2.389333 24.917334-6.656 6.485333-4.266667 10.752-9.898667 12.8-17.237334 2.048-7.338667 3.242667-19.797333 3.413333-37.546666s0.512-29.354667 1.194667-34.986667c1.194667-8.874667 3.413333-16.042667 6.656-21.504s7.338667-9.728 12.117333-12.970667 10.922667-5.632 18.261333-7.338666c5.12-1.024 13.312-1.536 24.746667-1.536h11.093333V595.626667h-6.144c-13.824 0-23.04 2.048-27.477333 5.973333s-6.826667 12.8-6.826667 26.624c0 27.818667-0.682667 45.397333-2.218666 52.736-2.389333 11.434667-6.485333 20.138667-12.288 26.282667s-14.848 11.605333-27.136 16.384c14.677333 4.949333 25.258667 12.288 31.744 22.357333 6.656 10.069333 9.898667 26.453333 9.898666 49.322667 0 20.650667 0.341333 33.109333 0.853334 37.034666 1.024 7.168 3.754667 12.288 8.021333 15.189334 4.266667 2.901333 12.8 4.266667 25.429333 4.266666h6.144v25.088h-11.093333c-12.970667 0-22.357333-0.853333-28.330667-2.56-8.533333-2.389333-15.530667-6.314667-21.162666-11.946666-5.632-5.461333-9.216-12.458667-10.922667-20.821334-1.706667-8.362667-2.56-22.186667-2.730667-41.301333s-1.194667-32.256-3.413333-39.594667c-2.048-7.338667-6.485333-13.141333-12.8-17.408-6.485333-4.266667-14.848-6.485333-24.917333-6.656l0.170666-26.282666zM792.234667 736.256c-10.24 0.170667-18.602667 2.389333-24.917334 6.656-6.485333 4.266667-10.752 10.069333-12.8 17.408-2.048 7.338667-3.242667 20.48-3.413333 39.594667s-1.024 32.938667-2.730667 41.301333c-1.706667 8.362667-5.290667 15.36-10.922666 20.821333s-12.629333 9.386667-21.162667 11.946667c-5.802667 1.706667-15.189333 2.56-28.330667 2.56h-11.093333v-25.088h6.144c12.629333 0 20.992-1.365333 25.429333-4.266667 4.266667-2.901333 6.997333-7.850667 8.021334-15.189333 0.512-3.925333 0.853333-16.213333 0.853333-37.034667 0-22.869333 3.242667-39.253333 9.898667-49.322666s17.237333-17.578667 31.744-22.357334c-12.288-4.778667-21.333333-10.24-27.136-16.384s-9.898667-14.848-12.288-26.282666c-1.536-7.338667-2.218667-24.917333-2.218667-52.736 0-13.824-2.218667-22.698667-6.826667-26.624-4.437333-3.925333-13.653333-5.973333-27.477333-5.973334h-6.144v-25.088h11.093333c11.434667 0 19.626667 0.512 24.746667 1.536 7.509333 1.706667 13.482667 4.096 18.261333 7.338667 4.778667 3.242667 8.874667 7.509333 12.117334 12.970667s5.461333 12.629333 6.656 21.504c0.682667 5.632 1.024 17.237333 1.194666 34.986666s1.194667 30.208 3.413334 37.546667c2.048 7.338667 6.485333 13.141333 12.8 17.237333 6.485333 4.266667 14.848 6.314667 24.917333 6.656l0.170667 26.282667zM471.210667 778.069333h182.954666c12.288 0 22.186667 9.898667 22.186667 22.186667v4.096c0 12.288-9.898667 22.186667-22.186667 22.186667H471.210667c-12.288 0-22.186667-9.898667-22.186667-22.186667v-4.096c0-12.288 9.898667-22.186667 22.186667-22.186667z" fill="#4191FB" p-id="76930"></path></svg>