<svg class="icon" style="width: 1em;height: 1em;vertical-align: middle;fill: currentColor;overflow: hidden;" viewBox="0 0 1024 1024" version="1.1" xmlns="http://www.w3.org/2000/svg" p-id="107995"><path d="M921.6 247.808v676.06528c0 55.296-45.85472 100.12672-102.4 100.12672H204.8c-56.54528 0-102.4-44.83072-102.4-100.12672V100.1472C102.4 44.83072 148.25472 0 204.8 0h463.36L921.6 247.808z" fill="#478F84" p-id="107996"></path><path d="M667.48416 0L921.6 247.808h-201.4208c-28.16 0-52.69504-18.08384-52.69504-46.24384V0z" fill="#3C7B72" p-id="107997"></path><path d="M352.74752 604.16v-24.576h-101.9904v-53.08416h91.91424v-24.576H250.75712v-48.66048h97.81248v-24.576H222.0032V604.16h130.74432z m52.59264 48.66048v-66.10944c10.32192 13.76256 23.10144 20.8896 37.84704 20.8896 18.18624 0 32.68608-6.63552 43.008-19.90656 9.58464-12.288 14.49984-27.77088 14.49984-46.44864 0-19.6608-4.9152-35.38944-14.7456-47.67744-10.81344-13.27104-25.55904-19.90656-44.2368-19.90656-16.71168 0-29.4912 5.65248-38.33856 16.95744v-13.5168h-26.05056v175.7184h28.01664z m31.21152-67.82976c-9.09312 0-16.46592-3.6864-22.36416-11.0592-6.63552-8.11008-9.8304-18.92352-9.8304-32.19456v-1.96608c0-12.77952 2.4576-22.85568 7.86432-30.47424 5.89824-8.84736 14.25408-13.02528 25.31328-13.02528 12.288 0 21.38112 4.42368 27.27936 13.27104 4.66944 7.3728 7.12704 17.94048 7.12704 31.70304s-2.70336 24.33024-7.86432 31.70304c-5.89824 7.86432-15.23712 12.04224-27.52512 12.04224z m134.43072 22.60992c15.72864 0 28.99968-6.63552 39.81312-19.90656v16.46592h28.01664v-127.05792h-28.01664v77.66016c-2.4576 9.09312-6.63552 16.22016-12.288 21.62688-5.65248 5.16096-11.55072 7.86432-17.69472 7.86432-9.8304 0-16.71168-2.4576-21.13536-7.12704-4.42368-4.9152-6.38976-12.288-6.38976-22.60992v-77.4144h-28.01664v79.13472c0 34.16064 15.23712 51.36384 45.71136 51.36384z m161.71008 0c18.67776 0 33.42336-6.63552 44.2368-19.90656 9.8304-12.288 14.7456-28.2624 14.7456-47.67744 0-18.67776-4.9152-34.16064-14.49984-46.44864-10.56768-13.27104-24.82176-19.90656-43.008-19.90656-14.7456 0-27.52512 6.88128-37.84704 20.8896v-69.30432h-28.01664V604.16h26.05056v-13.5168c8.84736 11.30496 21.62688 16.95744 38.33856 16.95744z m-4.17792-22.60992c-11.0592 0-19.41504-4.42368-25.31328-13.02528-5.40672-7.86432-7.86432-18.18624-7.86432-30.47424v-1.96608c0-13.5168 3.19488-24.33024 9.8304-32.19456 5.89824-7.3728 13.27104-11.0592 22.36416-11.0592 12.53376 0 21.87264 4.17792 27.77088 12.53376 4.9152 7.12704 7.61856 17.44896 7.61856 31.21152s-2.4576 24.33024-7.12704 31.70304c-5.89824 8.84736-14.99136 13.27104-27.27936 13.27104z" fill="#FFFFFF" p-id="107998"></path></svg>