<svg class="icon" style="width: 1em;height: 1em;vertical-align: middle;fill: currentColor;overflow: hidden;" viewBox="0 0 1024 1024" version="1.1" xmlns="http://www.w3.org/2000/svg" p-id="84057"><path d="M945.26 146.03H571.93v-43.35c0-5.78-2.99-8.67-5.97-11.56-2.99-2.89-8.96-2.89-11.95-2.89L76.16 203.83c-5.97 2.89-11.95 8.67-11.95 14.45v606.96c0 5.78 5.97 11.56 11.95 14.45l477.85 86.71H557c2.99 0 5.97 0 8.96-2.89 2.99-2.89 5.97-5.78 5.97-11.56V868.6h373.32c8.96 0 14.93-5.78 14.93-14.45V160.48c0.01-8.67-5.97-14.45-14.92-14.45z m-14.94 578.05H721.26v-86.71h209.06v86.71z m-713.79-80.93l80.64-130.06c2.99-5.78 2.99-11.56 0-14.45l-80.64-130.06c-2.99-2.89-2.99-5.78-2.99-8.67 0-2.89 2.99-5.78 5.97-8.67 5.97-2.89 14.93-2.89 20.9 5.78l62.72 104.05c5.97 8.67 20.9 8.67 26.88 0l62.72-104.05c2.99-5.78 14.93-8.67 20.9-5.78 5.97 0 8.96 5.78 8.96 8.67 0 2.89 0 8.67-2.99 11.56l-80.64 130.06c-2.99 5.78-2.99 11.56 0 14.45l80.64 130.06c2.99 2.89 2.99 5.78 2.99 8.67 0 2.89-2.99 5.78-5.97 8.67-5.97 2.89-14.93 2.89-20.91-5.78l-62.72-104.05c-2.99-5.78-8.96-5.78-11.95-5.78-2.99 0-8.96 2.89-11.95 5.78l-62.7 104.05c-2.99 5.78-14.93 8.67-20.9 5.78-8.96 0-11.95-2.89-11.95-8.67 0-2.89 0-5.78 2.99-11.56z m355.4-121.39H691.4v86.71H571.93v-86.71z m0-28.9v-86.71H691.4v86.71H571.93z m149.33-86.71h209.06v86.71H721.26v-86.71z m209.06-28.9H721.26v-86.71h209.06v86.71z m-238.92 0H571.93v-86.71H691.4v86.71zM571.93 637.37H691.4v86.71H571.93v-86.71z m149.33-28.9v-86.71h209.06v86.71H721.26z m209.06-433.54v86.71H721.26v-86.71h209.06z m-238.92 0v86.71H571.93v-86.71H691.4zM571.93 752.98H691.4v86.71H571.93v-86.71z m358.39 86.71H721.26v-86.71h209.06v86.71z m0 0" fill="#207245" p-id="84058"></path></svg>