<svg class="icon" style="width: 1em;height: 1em;vertical-align: middle;fill: currentColor;overflow: hidden;" viewBox="0 0 1024 1024" version="1.1" xmlns="http://www.w3.org/2000/svg" p-id="116224"><path d="M65.7 179.6h897v32.2h-897z" fill="#8A8D90" p-id="116225"></path><path d="M65.7 211.8h897V244h-897z" fill="#E6E6E6" p-id="116226"></path><path d="M65.7 244h897v605.2h-897z" fill="#F8F8F8" p-id="116227"></path><path d="M65.7 244h154.2v605.2H65.7z" fill="#E6E6E6" p-id="116228"></path><path d="M254.1 282.1h395.3v513.4H254.1z" fill="#0A7DD9" p-id="116229"></path><path d="M665 299.6h276.2v16.6H665zM665 333.6h276.2v16.6H665zM665 367.6h276.2v16.6H665zM665 401.5h276.2v16.6H665zM665 435.5h276.2v16.6H665zM665 469.5h276.2v16.6H665zM665 503.4h276.2V520H665zM665 537.4h276.2V554H665zM665 571.4h276.2V588H665zM665 605.3h276.2v16.6H665zM665 639.3h156.2v16.6H665zM82.3 299.6h34.2v16.6H82.3zM134 299.6h68.3v16.6H134zM82.3 363.3h34.2v16.6H82.3zM134 363.3h68.3v16.6H134zM82.3 427h34.2v16.6H82.3zM134 427h68.3v16.6H134zM82.3 490.7h34.2v16.6H82.3zM134 490.7h68.3v16.6H134zM82.3 554.4h34.2V571H82.3zM134 554.4h68.3V571H134z" fill="#C7C7C7" p-id="116230"></path></svg>