<svg class="icon" style="width: 1em;height: 1em;vertical-align: middle;fill: currentColor;overflow: hidden;" viewBox="0 0 1024 1024" version="1.1" xmlns="http://www.w3.org/2000/svg" p-id="58898"><path d="M653.88544 0a92.16 92.16 0 0 1 65.09568 26.9312l187.61728 187.21792a92.16 92.16 0 0 1 27.05408 65.2288v120.6272A80.10752 80.10752 0 0 1 1013.76 480.09216v319.7952a80.10752 80.10752 0 0 1-77.55776 80.06656l-2.54976 0.03072v48.00512c0 53.02272-43.02848 96-96.12288 96H196.7104c-53.0944 0-96.12288-42.97728-96.12288-96v-48.00512A80.10752 80.10752 0 0 1 20.48 799.8976v-319.7952a80.10752 80.10752 0 0 1 77.55776-80.06656l2.54976-0.04096V96C100.58752 42.97728 143.616 0 196.7104 0h457.17504zM837.5296 879.99488H196.7104v17.28512a30.72 30.72 0 0 0 30.72 30.72h579.3792a30.72 30.72 0 0 0 30.72-30.72v-17.28512zM269.98784 559.49312h-43.53024L192.59392 719.36h43.53024l14.29504-67.72736h49.72544l-14.52032 67.72736h43.76576l33.86368-159.86688h-43.54048l-12.93312 60.07808h-49.50016l12.70784-60.07808z m235.69408 0H381.93152l-6.42048 30.8224h39.60832L387.66592 719.36h43.08992l27.4432-129.03424h40.83712l6.64576-30.8224z m83.3536 0h-66.2528l-34.2016 159.86688h39.26016l20.25472-93.82912c0.36864-1.72032 1.15712-5.98016 2.3552-12.76928 1.19808-6.77888 2.70336-15.36 4.5056-25.7024h1.90464l5.7344 132.3008h39.38304l62.208-132.3008h1.35168a914.97472 914.97472 0 0 0-4.89472 18.90304 366.3872 366.3872 0 0 0-3.76832 16.87552l-20.13184 96.52224h39.48544l34.53952-159.86688h-68.74112l-37.00736 80.55808a346.624 346.624 0 0 0-7.59808 17.48992c-2.14016 5.36576-3.92192 10.4448-5.34528 15.24736 0.22528-3.97312 0.39936-7.5776 0.512-10.8032 0.1024-3.2256 0.16384-6.07232 0.16384-8.5504 0-2.92864-0.02048-5.34528-0.0512-7.26016a229.376 229.376 0 0 0-0.17408-5.44768l-3.4816-81.23392z m199.35232 0h-43.07968l-34.0992 159.86688H820.1216l6.98368-31.8464h-66.1504l27.4432-128.02048zM608.33792 88.32H227.4304a30.72 30.72 0 0 0-30.72 30.72v280.95488h640.8192v-81.5616H700.52864c-50.8928-0.01024-92.14976-41.2672-92.16-92.16l-0.03072-137.95328z m96.12288 59.84256v58.91072a15.36 15.36 0 0 0 15.36 15.36h59.0848l-74.4448-74.27072z" fill="#FF6B08" p-id="58899"></path></svg>