<svg class="icon" style="width: 1em;height: 1em;vertical-align: middle;fill: currentColor;overflow: hidden;" viewBox="0 0 1024 1024" version="1.1" xmlns="http://www.w3.org/2000/svg" p-id="76423"><path d="M653.88544 0a92.16 92.16 0 0 1 65.09568 26.9312l187.61728 187.21792a92.16 92.16 0 0 1 27.05408 65.2288v120.6272A80.10752 80.10752 0 0 1 1013.76 480.09216v319.7952a80.10752 80.10752 0 0 1-77.55776 80.06656l-2.54976 0.03072v48.00512c0 53.02272-43.02848 96-96.12288 96H196.7104c-53.0944 0-96.12288-42.97728-96.12288-96v-48.00512A80.10752 80.10752 0 0 1 20.48 799.8976v-319.7952a80.10752 80.10752 0 0 1 77.55776-80.06656l2.54976-0.04096V96C100.58752 42.97728 143.616 0 196.7104 0h457.17504zM837.5296 879.99488H196.7104v17.28512a30.72 30.72 0 0 0 30.72 30.72h579.3792a30.72 30.72 0 0 0 30.72-30.72v-17.28512zM500.2752 559.49312H457.4208l-21.26848 100.9152c-1.80224 8.5504-4.9152 14.9504-9.33888 19.17952-4.42368 4.23936-10.12736 6.35904-17.1008 6.35904-2.32448 0-4.9664-0.3072-7.92576-0.90112a82.83136 82.83136 0 0 1-10.06592-2.80576l-9.0112 34.8672c4.28032 2.02752 8.94976 3.5328 14.00832 4.5056a89.856 89.856 0 0 0 16.93696 1.46432c17.62304 0 31.47776-4.05504 41.5744-12.15488 10.07616-8.0896 16.95744-20.736 20.6336-37.90848l24.41216-113.52064z m81.5616-3.4816c-20.09088 0-36.33152 4.8128-48.71168 14.45888-12.36992 9.6256-18.55488 22.17984-18.55488 37.632 0 8.76544 2.21184 16.27136 6.63552 22.49728 4.42368 6.22592 11.17184 11.24352 20.24448 15.07328 2.32448 0.9728 5.59104 2.28352 9.78944 3.9424 16.72192 6.66624 25.088 13.86496 25.088 21.59616 0 6.144-3.15392 11.02848-9.45152 14.62272-6.2976 3.60448-14.91968 5.39648-25.87648 5.39648-6.00064 0-12.12416-0.8192-18.39104-2.46784a103.39328 103.39328 0 0 1-19.4048-7.424l-9.216 32.96256c8.2432 2.9184 16.81408 5.12 25.7024 6.57408a171.3152 171.3152 0 0 0 27.84256 2.2016c22.86592 0 40.98048-5.20192 54.33344-15.58528 13.35296-10.38336 20.02944-24.32 20.02944-41.78944 0-9.5232-2.4064-17.36704-7.20896-23.52128-4.79232-6.144-13.824-12.4416-27.10528-18.8928a196.47488 196.47488 0 0 0-10.8032-4.73088c-11.39712-4.72064-17.1008-9.97376-17.1008-15.74912 0-5.3248 2.52928-9.39008 7.59808-12.20608 5.05856-2.80576 12.34944-4.21888 21.88288-4.21888 6.2976 0 12.4416 0.65536 18.44224 1.96608 6.00064 1.32096 11.9296 3.2768 17.77664 5.90848l9.90208-31.16032c-6.37952-2.32448-14.08-4.096-23.12192-5.28384a231.79264 231.79264 0 0 0-30.3104-1.80224z m26.50112-467.69152H227.4304a30.72 30.72 0 0 0-30.72 30.72v280.95488h640.8192v-81.5616H700.52864c-50.8928-0.01024-92.14976-41.2672-92.16-92.16l-0.03072-137.95328z m96.12288 59.84256v58.91072a15.36 15.36 0 0 0 15.36 15.36h59.0848l-74.4448-74.27072z" fill="#FFC93A" p-id="76424"></path></svg>