<svg class="icon" style="width: 1em;height: 1em;vertical-align: middle;fill: currentColor;overflow: hidden;" viewBox="0 0 1024 1024" version="1.1" xmlns="http://www.w3.org/2000/svg" p-id="63718"><path d="M511.78 64.22C264.6 64.22 64.22 264.6 64.22 511.78S264.6 959.33 511.78 959.33 959.33 759 959.33 511.78 759 64.22 511.78 64.22zM685.12 417.7a19.09 19.09 0 0 1-27 0.26L546.83 308.8v374.26a23.68 23.68 0 0 1-0.59 5.23 106.83 106.83 0 1 1-57.33-105V267.43a29 29 0 0 1 29-29 28.81 28.81 0 0 1 17.51 5.9c0.33 0.24 0.64 0.49 1 0.75a29.64 29.64 0 0 1 2.64 2.49l145.8 143.13a19.09 19.09 0 0 1 0.26 27z" fill="#FF716E" p-id="63719"></path><path d="M190.56 659.43a465.63 465.63 0 0 0 48.2 207 445.59 445.59 0 0 0 273 92.9C759 959.33 959.33 759 959.33 511.78a445.62 445.62 0 0 0-90.62-270 465.81 465.81 0 0 0-210.5-49.95c-258.28-0.05-467.65 209.33-467.65 467.6zM685.12 417.7a19.09 19.09 0 0 1-27 0.26L546.83 308.8v374.26a23.68 23.68 0 0 1-0.59 5.23 106.83 106.83 0 1 1-57.33-105V267.43a29 29 0 0 1 29-29 28.81 28.81 0 0 1 17.51 5.9c0.33 0.24 0.64 0.49 1 0.75a29.64 29.64 0 0 1 2.64 2.49l145.8 143.13a19.09 19.09 0 0 1 0.26 27z" fill="#FF5C64" p-id="63720"></path><path d="M690.21 400.58a19.07 19.07 0 0 1-5.09 17.12 19.09 19.09 0 0 1-27 0.26l-6.55-6.42a430 430 0 0 0-104.74 51.89v219.63a23.68 23.68 0 0 1-0.59 5.23 106.87 106.87 0 0 1-183.58 63.84 435 435 0 0 0 10.49 185.32 447.36 447.36 0 0 0 138.63 21.88C759 959.33 959.33 759 959.33 511.78a449 449 0 0 0-9.33-91.41 433.8 433.8 0 0 0-259.77-19.79z" fill="#FC4956" p-id="63721"></path><path d="M439.85 571.34a106.34 106.34 0 0 1 49.06 11.91v-72.77a434.44 434.44 0 0 0-52.34 60.91c1.09-0.03 2.18-0.05 3.28-0.05z" fill="#FC4956" p-id="63722"></path><path d="M944.61 626a341.46 341.46 0 0 0-78.72-9.16c-188 0-340.39 152.4-340.39 340.39v1.86C727.14 953 895.22 813.62 944.61 626z" fill="#F23D4F" p-id="63723"></path><path d="M397.49 169.86c7.56 11.34-32.19 25.35-74.11 53.29s-70.16 59.22-77.72 47.85 15.63-50.21 57.55-78.15 86.72-34.33 94.28-22.99z" fill="#FFFFFF" p-id="63724"></path></svg>