<svg class="icon" style="width: 1em;height: 1em;vertical-align: middle;fill: currentColor;overflow: hidden;" viewBox="0 0 1024 1024" version="1.1" xmlns="http://www.w3.org/2000/svg" p-id="45553"><path d="M853.312 1024H170.624a113.92 113.92 0 0 1-113.792-113.792V113.792A113.92 113.92 0 0 1 170.624 0h514.816l0.384 0.384v224a56.896 56.896 0 0 0 56.832 56.768h224l0.384 0.384v628.608A113.92 113.92 0 0 1 853.312 1024zM512 696.384a48 48 0 0 0-48 47.936 48.064 48.064 0 0 0 48 48.064 48.064 48.064 0 0 0 48-48.064 48 48 0 0 0-48-47.936z m0-289.408a66.048 66.048 0 0 1 65.984 65.92A66.048 66.048 0 0 1 512 538.88a29.824 29.824 0 0 0-32 26.944v88.96h64V589.184a122.048 122.048 0 0 0 97.984-116.224A125.44 125.44 0 0 0 512 352.96 125.44 125.44 0 0 0 382.016 472.96v26.944h64V472.96A66.048 66.048 0 0 1 512 406.976z" fill="#BABABA" p-id="45554"></path><path d="M464.064 744.384a48 48 0 0 1 48-48 48 48 0 0 1 48 48 48 48 0 0 1-48 48 48 48 0 0 1-48-48z m15.936-89.6v-88.96A29.824 29.824 0 0 1 512 538.88a66.112 66.112 0 0 0 65.984-65.984A66.048 66.048 0 0 0 512 406.912a66.048 66.048 0 0 0-65.984 65.984v27.008h-64v-27.008A125.376 125.376 0 0 1 512 352.96a125.376 125.376 0 0 1 129.984 119.936A122.496 122.496 0 0 1 544 589.184v65.6z" fill="#FFFFFF" p-id="45555"></path><path d="M464.064 744.384a48 48 0 0 1 48-48 48 48 0 0 1 48 48 48 48 0 0 1-48 48 48 48 0 0 1-48-48z m15.936-89.6v-88.96A29.824 29.824 0 0 1 512 538.88a66.112 66.112 0 0 0 65.984-65.984A66.048 66.048 0 0 0 512 406.912a66.048 66.048 0 0 0-65.984 65.984v27.008h-64v-27.008A125.376 125.376 0 0 1 512 352.96a125.376 125.376 0 0 1 129.984 119.936A122.496 122.496 0 0 1 544 589.184v65.6z" fill="#FFFFFF" p-id="45556"></path><path d="M685.888 224.384V0l280.896 281.216h-224a56.96 56.96 0 0 1-56.832-56.832" fill="#979797" p-id="45557"></path></svg>