<svg class="icon" style="width: 1em;height: 1em;vertical-align: middle;fill: currentColor;overflow: hidden;" viewBox="0 0 1024 1024" version="1.1" xmlns="http://www.w3.org/2000/svg" p-id="90564"><path d="M874.666667 213.333333H533.333333v597.333334h341.333334a21.333333 21.333333 0 0 0 21.333333-21.333334V234.666667a21.333333 21.333333 0 0 0-21.333333-21.333334z" fill="#FF8A65" p-id="90565"></path><path d="M512 618.666667h298.666667v42.666666H512zM512 704h298.666667v42.666667H512zM640 320a128 128 0 0 0 0 256 128 128 0 0 0 128-128h-128v-128z" fill="#FBE9E7" p-id="90566"></path><path d="M682.666667 277.333333v128h128a128 128 0 0 0-128-128z" fill="#FBE9E7" p-id="90567"></path><path d="M576 896L128 810.666667V213.333333l448-85.333333z" fill="#E64A19" p-id="90568"></path><path d="M358.997333 362.666667H256v298.666666h64v-102.890666h33.109333c35.306667 0 63.488-9.301333 84.586667-27.818667 21.077333-18.538667 31.658667-42.816 31.616-72.789333C469.333333 394.389333 432.533333 362.666667 358.997333 362.666667z m-11.392 144.746666H320v-93.098666h27.605333c35.008 0 52.501333 15.36 52.501334 46.037333 0 31.402667-17.493333 47.061333-52.501334 47.061333z" fill="#FFFFFF" p-id="90569"></path></svg>