<svg class="icon" style="width: 1em;height: 1em;vertical-align: middle;fill: currentColor;overflow: hidden;" viewBox="0 0 1024 1024" version="1.1" xmlns="http://www.w3.org/2000/svg" p-id="41783"><path d="M394.666667 484.266667v221.866666c0 17.066667 17.066667 27.733333 32 19.2l192-110.933333c14.933333-8.533333 14.933333-27.733333 0-36.266667l-192-110.933333c-14.933333-10.666667-32 0-32 17.066667z" fill="#297AFF" p-id="41784"></path><path d="M812.8 128H211.2C164.266667 128 128 164.266667 128 211.2v601.6C128 859.733333 164.266667 896 211.2 896h601.6c44.8 0 83.2-36.266667 83.2-83.2V211.2C896 164.266667 859.733333 128 812.8 128zM768 213.333333c23.466667 0 42.666667 19.2 42.666667 42.666667v38.4h-53.333334L712.533333 213.333333H768z m-155.733333 0l46.933333 81.066667h-78.933333L535.466667 213.333333h76.8z m-174.933334 0l46.933334 81.066667H405.333333L356.266667 213.333333h81.066666zM256 213.333333h2.133333l46.933334 81.066667H213.333333V256c0-23.466667 19.2-42.666667 42.666667-42.666667z m512 597.333334H256c-23.466667 0-42.666667-19.2-42.666667-42.666667V379.733333h597.333334V768c0 23.466667-19.2 42.666667-42.666667 42.666667z" fill="#297AFF" p-id="41785"></path></svg>