<svg class="icon" style="width: 1em;height: 1em;vertical-align: middle;fill: currentColor;overflow: hidden;" viewBox="0 0 1024 1024" version="1.1" xmlns="http://www.w3.org/2000/svg" p-id="64632"><path d="M532.1 100.9h55.7v76.2c99.6 0.9 199.1-1.1 298.5 0.9 9.9-1.2 19.9 2.3 26.9 9.4 7 7.1 10.4 17.1 9 27 1.6 187.7 0 375.7 1 563.1-1 19.3 1.8 40.6-9.1 57.8-13.6 9.6-31.1 8.7-47 9.6H587.7v74.9h-57.8c-142-26.1-284-50.4-426-75.8V177.3c142.7-25.6 285.5-50.4 428.2-76.4z m0 0" fill="#2A5699" p-id="64633"></path><path d="M587.7 205.7h307.1v609.6H587.7v-76.2h242v-38.5h-242v-47.2h242v-38.5h-242v-47.2h242v-38.5h-242V481h242v-37.1h-242v-48.2h242v-37.6h-242v-47.7h242v-38.1h-242v-66.6zM296.6 374c17.7-1.1 35.4-1.8 53.1-2.8 12.4 64.4 25 128.5 38.5 192.7 10.5-66.2 22.2-132.1 33.4-198.1 18.6-0.7 37.2-1.7 55.8-2.9-21.1 92.3-39.5 185.4-62.5 277.1-15.5 8.3-38.5 0-57.2 1-12.9-63.2-27.3-125.9-38.3-189.2-10.9 61.6-25 122.5-37.5 183.6-17.9-1-35.8-2-53.8-3.3-15.5-83.8-33.7-167.1-48.2-251.1 15.9-0.8 31.9-1.4 48.2-2 9.6 60.7 20.5 121.1 28.9 181.9 12.8-62.4 26.2-124.6 39.6-186.9z m0 0" fill="#FFFFFF" p-id="64634"></path></svg>