<svg class="icon" style="width: 1em;height: 1em;vertical-align: middle;fill: currentColor;overflow: hidden;" viewBox="0 0 1024 1024" version="1.1" xmlns="http://www.w3.org/2000/svg" p-id="127650"><path d="M640.47 64H188.69C150.75 64 120 94.75 120 132.69v758.62c0 37.94 30.75 68.69 68.69 68.69h646.62c37.94 0 68.69-30.75 68.69-68.69V348.23L640.47 64zM318.82 806.24l-53.78-79.68-53.78 79.68h-37.45l72.36-103.9-67.57-97.14h37.45l48.99 72.64 48.99-72.64h37.45l-68.14 97.14 72.93 103.9h-37.45z m311.43 0h-30.69V662.65h-1.12l-61.66 143.59h-26.47l-61.66-143.59h-1.12v143.59h-30.69V605.21h36.32l70.11 161.05h0.85l69.83-161.05h36.32v201.03z m219.94 0H709.13V605.21h30.41v174.85h110.65v26.18z" fill="#FF5662" p-id="127651"></path><path d="M872.31 347.55H904v15.12h-31.69v-15.12z" fill="#AD2132" p-id="127652"></path><path d="M904 362.67H743.23c-56.72 0-102.7-45.98-102.7-102.7V79.12" fill="#AD2132" p-id="127653"></path><path d="M904 347.55H731.74c-50.38 0-91.22-40.84-91.22-91.22V64" fill="#FFBBC0" p-id="127654"></path></svg>