<svg class="icon" style="width: 1em;height: 1em;vertical-align: middle;fill: currentColor;overflow: hidden;" viewBox="0 0 1024 1024" version="1.1" xmlns="http://www.w3.org/2000/svg" p-id="56499"><path d="M659.72 64.81H270.4c-78.06 0-141.33 63.28-141.33 141.33v612.95c0 78.06 63.28 141.33 141.33 141.33h485.49c78.06 0 141.33-63.28 141.33-141.33V302.3c0-31.83-12.64-62.35-35.15-84.85l-117.5-117.5a120.008 120.008 0 0 0-84.85-35.14z" fill="#FFC757" p-id="56500"></path><path d="M304.85 196.81h71.52c7.86 0 14.24-6.38 14.24-14.24v-71.52c0-7.87-6.38-14.24-14.24-14.24h-71.52c-7.86 0-14.24 6.38-14.24 14.24v71.52c0 7.86 6.38 14.24 14.24 14.24zM476.37 196.81h-71.52c-7.86 0-14.24 6.38-14.24 14.24v71.52c0 7.87 6.38 14.24 14.24 14.24h71.52c7.86 0 14.24-6.38 14.24-14.24v-71.52c0-7.86-6.38-14.24-14.24-14.24zM304.85 396.81h71.52c7.86 0 14.24-6.38 14.24-14.24v-71.52c0-7.87-6.38-14.24-14.24-14.24h-71.52c-7.86 0-14.24 6.38-14.24 14.24v71.52c0 7.86 6.38 14.24 14.24 14.24zM476.37 396.81h-71.52c-7.86 0-14.24 6.38-14.24 14.24v71.52c0 7.87 6.38 14.24 14.24 14.24h71.52c7.86 0 14.24-6.38 14.24-14.24v-71.52c0-7.86-6.38-14.24-14.24-14.24zM455.65 552.02H321.52c-17.07 0-30.91 13.84-30.91 30.91v155.48c0 17.07 13.84 30.91 30.91 30.91h134.13c17.07 0 30.91-13.84 30.91-30.91V582.93c0-17.07-13.84-30.91-30.91-30.91z m-4.93 164.59c0 13.72-11.12 24.84-24.84 24.84h-74.6c-13.72 0-24.84-11.12-24.84-24.84v-27.36c0-13.72 11.12-24.84 24.84-24.84h74.6c13.72 0 24.84 11.12 24.84 24.84v27.36zM862.07 217.45l-117.5-117.5a120.001 120.001 0 0 0-61.75-32.9v131.88c0 41.87 33.94 75.81 75.81 75.81H894a120.021 120.021 0 0 0-31.93-57.29z" fill="#F79F2B" p-id="56501"></path><path d="M304.85 184.81h71.52c7.86 0 14.24-6.38 14.24-14.24V99.05c0-7.87-6.38-14.24-14.24-14.24h-71.52c-7.86 0-14.24 6.38-14.24 14.24v71.52c0 7.86 6.38 14.24 14.24 14.24zM476.37 184.81h-71.52c-7.86 0-14.24 6.38-14.24 14.24v71.52c0 7.87 6.38 14.24 14.24 14.24h71.52c7.86 0 14.24-6.38 14.24-14.24v-71.52c0-7.86-6.38-14.24-14.24-14.24zM304.85 384.81h71.52c7.86 0 14.24-6.38 14.24-14.24v-71.52c0-7.87-6.38-14.24-14.24-14.24h-71.52c-7.86 0-14.24 6.38-14.24 14.24v71.52c0 7.86 6.38 14.24 14.24 14.24zM476.37 384.81h-71.52c-7.86 0-14.24 6.38-14.24 14.24v71.52c0 7.87 6.38 14.24 14.24 14.24h71.52c7.86 0 14.24-6.38 14.24-14.24v-71.52c0-7.86-6.38-14.24-14.24-14.24zM455.65 540.02H321.52c-17.07 0-30.91 13.84-30.91 30.91v155.48c0 17.07 13.84 30.91 30.91 30.91h134.13c17.07 0 30.91-13.84 30.91-30.91V570.93c0-17.07-13.84-30.91-30.91-30.91z m-4.93 164.59c0 13.72-11.12 24.84-24.84 24.84h-74.6c-13.72 0-24.84-11.12-24.84-24.84v-27.36c0-13.72 11.12-24.84 24.84-24.84h74.6c13.72 0 24.84 11.12 24.84 24.84v27.36z" fill="#FFFFFF" p-id="56502"></path></svg>