<svg class="icon" style="width: 32em;height: 32em;vertical-align: middle;fill: currentColor;overflow: hidden;" viewBox="0 0 1024 1024" version="1.1" xmlns="http://www.w3.org/2000/svg" p-id="47235"><path d="M921.6 0c56.32 0 102.4 46.08 102.4 102.4v819.2c0 56.32-46.08 102.4-102.4 102.4H102.4c-56.32 0-102.4-46.08-102.4-102.4V102.4C0 45.568 46.08 0 102.4 0h819.2" fill="#0067B8" p-id="47236"></path><path d="M460.8 499.712V268.8l-261.12 51.2v179.712h261.12z m43.52 0H808.96V200.192L504.32 260.096v239.616z m-43.52 39.936H199.68v179.712l261.12 51.2v-230.912z m43.52 0v239.616l304.64 59.904v-299.52H504.32z m0 0" fill="#FFFFFF" p-id="47237"></path></svg>