<svg width="208" height="128" xmlns="http://www.w3.org/2000/svg">

 <g>
  <title>background</title>
  <rect fill="none" id="canvas_background" height="402" width="582" y="-1" x="-1"/>
 </g>
 <g>
  <title>Layer 1</title>
  <path stroke="#FFFFFF" id="svg_1" d="m15,5l178,0c5.523,0 10,4.477 10,10l0,98c0,5.523 -4.477,10 -10,10l-178,0c-5.523,0 -10,-4.477 -10,-10l0,-98c0,-5.523 4.477,-10 10,-10z" stroke-width="10" fill="none"/>
  <path id="svg_2" d="m30,98l0,-68l20,0l20,25l20,-25l20,0l0,68l-20,0l0,-39l-20,25l-20,-25l0,39l-20,0zm125,0l-30,-33l20,0l0,-35l20,0l0,35l20,0l-30,33z" fill="#000000"/>
 </g>
</svg>